 <svg class="ufo" width="63.461mm" height="18.619mm" version="1.1" viewBox="0 0 63.461 18.619" xmlns="http://www.w3.org/2000/svg">
    <g transform="matrix(.0069593 0 0 -.0067558 -68.115 102.03)" style="stroke-width:1.8951">
         <path transform="scale(1,-1)" d="m10208-13933c326.6-113.18 1262.9-277.11 2434.2-356.89 1895.4-129.09 3485.9 20.057 4337.8 72.899 479.06 29.716 1809.2 229.99 1873.6 519.29 64.388 289.3-1035.1 440.66-1035.1 440.66s-253.55-476.57-1935-636.98c-1443.6-137.72-3248.6 25.425-3708.5 97.635-1252.9 196.74-1272.7 539.34-1272.7 539.34s-984.58-83.407-1039.7-412.76c-22.117-132.13 345.36-263.21 345.36-263.21z" style="fill:#10131f;stroke-linejoin:round;stroke-width:5.6853"/>
         <path d="m14347 14325c-1202.1 0-2331.8-69.583-3180.9-195.99-410.61-61.09-732.71-132.37-957.36-211.8-214.99-76.032-328.63-156.95-328.63-234.06 0-77.074 113.64-158.03 328.63-234.03 224.65-79.464 546.75-150.71 957.36-211.84 849.13-126.37 1978.8-195.99 3180.9-195.99s2331.7 69.618 3180.9 195.99l5.578-15.67-5.578 15.67c410.61 61.125 732.67 132.37 957.37 211.84 214.99 75.998 328.6 156.95 328.6 234.03 0 77.108-113.61 158.03-328.6 234.06-224.7 79.431-546.75 150.71-957.37 211.8-849.12 126.41-1978.8 195.99-3180.9 195.99zm0-1343.5c-1208.9 0-2345.9 70.138-3201.6 197.52-431.87 64.279-768.16 139.69-999.54 224.14-237.69 86.746-358.21 180.94-358.21 280s120.52 193.29 358.21 280.04c231.38 84.422 567.67 159.83 999.54 224.11 855.73 127.38 1994.1 255.52 3203 255.52s2344.6-128.14 3200.3-255.52c431.86-64.28 768.13-139.69 999.53-224.11 237.68-86.746 358.21-180.98 358.21-280.04s-120.53-193.25-358.21-280c-231.4-84.458-567.67-159.87-999.53-224.14-855.72-127.38-1992.8-197.52-3201.7-197.52" style="fill:#707070"/>
         <path transform="matrix(15.199,0,0,-13.292,8640.6,15858)" d="m376.33 140.27c-134.04 0-242.71 18.534-242.71 41.4 0 4.9298 5.9127 9.5937 15.182 13.979 10.09 20.032 107.48 35.807 227.53 35.807 120.04 0 217.44-15.775 227.53-35.807 9.2689-4.3848 15.182-9.0488 15.182-13.979 0-22.866-108.66-41.4-242.71-41.4z" style="fill:#707070"/>
         <path d="m14360 13590c-1497.8 0-2763.1-182.63-2763.1-398.83s1265.3-398.86 2763.1-398.86c1497.7 0 2763.1 182.67 2763.1 398.86 0 216.2-1265.4 398.83-2763.1 398.83zm0-832.33c-747.15 0-1449.9 43.434-1978.7 122.34-548.14 81.76-837.86 189.34-837.86 311.16 0 121.79 289.73 229.37 837.86 311.16 528.84 78.875 1231.6 122.31 1978.7 122.31 747.15 0 1449.9-43.434 1978.7-122.31 548.15-81.796 837.86-189.37 837.86-311.16 0-121.82-289.71-229.4-837.86-311.16-528.78-78.911-1231.5-122.34-1978.7-122.34" style="fill:#10131f"/>
         <path d="m14375 13494c-1218.8 0-2206.8-173.56-2206.8-387.64 0-10.418 2.408-20.726 6.994-30.927-4.871-0.65-7.322-0.974-6.994-0.974 0 0 265.02-475.23 959.84-631.46 340.47-76.526 1052.3-95.666 1242.1-95.666 180.34 0 911.18 0 1242.1 95.666 571.11 165.13 870.1 494.01 941.06 601.29 18.506 20.221 28.322 40.947 28.322 62.071 0 214.08-988.05 387.64-2206.8 387.64" style="fill:#10131f"/>
         <path d="m12197 13079c53.399-80.093 331.08-453.94 936.93-585.21 347.15-75.227 1074-91.524 1235.4-91.524 749.46 0 1084.6 49.55 1233.7 91.108 525.24 146.35 838.02 438.51 930.07 572.53l1.341 1.633c16.628 17.548 25.049 35.2 25.049 52.573 0 195.04-1000.8 359.84-2185.4 359.84s-2185.4-164.81-2185.4-359.84c0-8.478 2.043-17.165 6.082-25.817l6.855-14.698zm2172.3-704.39c-162.7 0-896.34 16.539-1248.9 92.948-642.35 139.2-925.3 542.54-967.47 607.97h-5.026l-1.867 12.544c-0.59 3.996 0.944 6.984 3.551 9.208-2.414 7.61-3.62 15.254-3.62 22.829 0 217.27 978.7 387.5 2228.1 387.5s2228.1-170.23 2228.1-387.5c0-22.273-10.353-44.581-30.736-66.263-95.05-137.84-415.28-436.46-951.58-585.87-152.82-42.601-493.81-93.366-1250.6-93.366" style="fill:#fff"/>
         <path d="m12233 13067c74.055-103.44 350.55-436.84 909.23-557.94 343.99-74.532 1066.9-90.655 1227.5-90.655 745.22 0 1076.9 48.819 1223.9 89.786 518.11 144.38 826.49 432.22 917.14 564.26l2.842 3.509c14.215 14.942 21.402 29.778 21.402 44.129 0 84.992-229.53 171.51-629.68 237.43-416.25 68.521-959.89 106.26-1530.8 106.26-570.94 0-1114.6-37.735-1530.8-106.26-400.18-65.916-629.7-152.44-629.7-237.43 0-6.914 1.691-14.038 5.016-21.161l14.852-31.828zm2136.7-708.53c-163.52 0-901.11 16.679-1256.8 93.748-623.26 135.1-910.56 509.71-976.02 607.17h-11.189l-4.039 27.103c-0.681 4.692 0.123 9.104 2.355 13.17-1.685 6.81-2.538 13.655-2.538 20.431 0 59.001 61.858 114.77 183.85 165.74 112.93 47.221 274.46 89.3 480.13 125.06 418.31 72.761 982.64 112.82 1589 112.82 606.4 0 1170.7-40.063 1589-112.82 205.66-35.755 367.17-77.834 480.13-125.06 121.98-50.974 183.82-106.74 183.82-165.74 0-24.983-11.264-49.793-33.471-73.768-96.928-139.72-421.99-442.19-963.86-593.2-154.97-43.19-499.44-94.651-1260.4-94.651" style="fill:#707070"/>
         <path d="m15874 12619c0-140.93-671.41-236.73-1499.7-236.73-828.2 0-1499.6 95.798-1499.6 236.73 0 140.9 671.41 255.15 1499.6 255.15 828.26 0 1499.7-114.25 1499.7-255.15" style="fill:#707070"/>
         <path d="m14374 12861c-884.25 0-1478.3-124.78-1478.3-241.32 0-124.98 649.33-222.9 1478.3-222.9 828.95 0 1478.3 97.918 1478.3 222.9 0 116.54-594.01 241.32-1478.3 241.32zm0-491.88c-409.56 0-787.89 23.419-1065.3 65.88-298.1 45.658-455.67 109.52-455.67 184.68 0 168.35 773.34 268.98 1521 268.98 747.69 0 1521-100.63 1521-268.98 0-75.158-157.6-139.02-455.67-184.68-277.43-42.461-655.75-65.88-1065.3-65.88" style="fill:#fff"/>
         <path d="m14374 12844c-407.4 0-785.33-27.103-1064.2-76.375-286.94-50.695-389.18-110.11-389.18-148.79 0-99.863 584-206.74 1453.4-206.74s1453.4 106.88 1453.4 206.74c0 38.674-102.24 98.092-389.16 148.79-278.88 49.272-656.77 76.375-1064.2 76.375zm0-491.85c-411.41 0-791.78 23.558-1071 66.297-315.09 48.264-474.85 115.67-474.85 200.39 0 86.937 172.56 160.71 499.02 213.28 283.38 45.658 664.94 71.822 1046.9 71.822 381.97 0 763.51-26.164 1046.9-71.822 326.45-52.572 499.01-126.34 499.01-213.28 0-84.714-159.74-152.12-474.82-200.39-279.25-42.739-659.67-66.297-1071.1-66.297" style="fill:#707070"/>
         <path d="m15387 12620c0-86.313-453.21-145-1012.3-145-559.03 0-1012.2 58.687-1012.2 145 0 86.312 453.2 156.29 1012.2 156.29 559.09 0 1012.3-69.98 1012.3-156.29" style="fill:#10131f"/>
         <path d="m16148 14422c-1256.6 12.17-2223.4 18.875-3557.4 2.411 308.39 335.41 1025.2 685.06 1833.4 678.86 808.16-6.208 1383.6-314.51 1724-681.27z" style="fill:#10131f;stroke-linejoin:round;stroke-width:5.6853"/>
         <path d="m16848 14231c-52.46 5.213-105.56 10.216-159.26 15.081-65.494-160.57-264.55-406.23-264.55-406.23l113.88-43.017c151.21 132.77 259.51 330.17 309.93 434.16" style="fill:#707070"/>
         <path d="m17305 14179c-104.81 13.517-213.27 26.234-324.84 38.187-72.092-172.66-256.24-405.26-256.24-405.26l270.51-27.659c134.9 106.08 250.12 288.05 310.58 394.73" style="fill:#707070"/>
         <path d="m18722 13837c-31.325 18.555-68.23 36.936-110.5 55.074-143.11-68.834-508.02-234.33-820.53-292.15l85.395-64.56s627.64 146.36 845.64 301.64" style="fill:#707070"/>
         <path d="m18506 13933c-222.5 78.25-547.02 150.77-958.82 212.2-30.092 4.483-60.614 8.896-91.349 13.239-81.372-139.13-217.73-333.75-375.86-402.02l612.19-129.12s507.86 150.18 813.83 305.71" style="fill:#707070"/>
         <path d="m15926 12678s455.56 239.79 626.41 544.1l-113.88 55.352s-298.99-424.23-583.71-534.9l71.181-64.56" style="fill:#707070"/>
         <path d="m16339 13332s-256.24-396.57-569.5-553.35l-341.69 73.803s412.87 368.88 469.83 608.67l441.35-129.12" style="fill:#707070"/>
         <path d="m11865 14231c52.429 5.213 105.52 10.216 159.23 15.081 65.5-160.57 264.58-406.23 264.58-406.23l-113.89-43.017c-151.21 132.77-259.53 330.17-309.92 434.16" style="fill:#707070"/>
         <path d="m10780 13498-28.467-119.91c-361 8.096-787.26 234.68-888.7 291.53-0.6008 4.273-1.1211 8.547-1.1211 12.822 0 39.09 25.377 78.077 74.066 116.47 301.03-210.88 844.23-300.91 844.23-300.91" style="fill:#707070"/>
         <path d="m11409 14179c104.81 13.517 213.27 26.234 324.83 38.187 72.109-172.66 256.24-405.26 256.24-405.26l-270.51-27.659c-134.86 106.08-250.09 288.05-310.56 394.73" style="fill:#707070"/>
         <path d="m9991 13837c31.342 18.555 68.268 36.936 110.49 55.074 143.14-68.834 508.06-234.33 820.57-292.15l-85.422-64.56s-627.6 146.36-845.64 301.64" style="fill:#707070"/>
         <path d="m10208 13933c222.52 78.25 547.02 150.77 958.83 212.2 30.075 4.483 60.597 8.896 91.37 13.239 81.318-139.13 217.72-333.75 375.83-402.02l-612.19-129.12s-507.85 150.18-813.84 305.71" style="fill:#707070"/>
         <path d="m12374 13332s256.27-396.57 569.48-553.35l341.69 73.803s-412.87 368.88-469.82 608.67l-441.34-129.12" style="fill:#707070"/>
         <path d="m12787 12678s-455.59 239.79-626.43 544.1l113.9 55.352s298.97-424.23 583.72-534.9l-71.186-64.56" style="fill:#707070"/>
         <path d="m12591 14424s1157.2 44.741 1747 44.741 1792.1-44.741 1792.1-44.741c-951.26 794.7-2572 808.88-3539.2 0zm3974.9-132.87s-1269.4 103.77-2232.8 93.503c-963.41-10.265-2091.4-106.39-2091.4-106.39l183.63 127.84c6.811 6.998 170.43 173.27 487.88 342.76 878.59 469.07 2012.3 471.14 2894.7 0" style="fill:#707070"/>
    </g>
</svg>